HIERARCHY
ROOT Hips
{
	OFFSET 0.00000 0.00000 0.00000
	CHANNELS 6 Xposition Yposition Zposition Zrotation Yrotation Xrotation 
	JOINT LHipJoint
	{
		OFFSET 0 0 0
		CHANNELS 3 Zrotation Yrotation Xrotation
		JOINT LeftUpLeg
		{
			OFFSET 1.55766 -1.60504 1.11378
			CHANNELS 3 Zrotation Yrotation Xrotation
			JOINT LeftLeg
			{
				OFFSET 2.29047 -6.29302 0.00000
				CHANNELS 3 Zrotation Yrotation Xrotation
				JOINT LeftFoot
				{
					OFFSET 2.52265 -6.93093 0.00000
					CHANNELS 3 Zrotation Yrotation Xrotation
					JOINT LeftToeBase
					{
						OFFSET 0.17633 -0.48446 2.02656
						CHANNELS 3 Zrotation Yrotation Xrotation
						End Site
						{
							OFFSET 0.00000 -0.00000 1.04989
						}
					}
				}
			}
		}
	}
	JOINT RHipJoint
	{
		OFFSET 0 0 0
		CHANNELS 3 Zrotation Yrotation Xrotation
		JOINT RightUpLeg
		{
			OFFSET -1.48599 -1.60504 1.11378
			CHANNELS 3 Zrotation Yrotation Xrotation
			JOINT RightLeg
			{
				OFFSET -2.27280 -6.24448 0.00000
				CHANNELS 3 Zrotation Yrotation Xrotation
				JOINT RightFoot
				{
					OFFSET -2.50834 -6.89161 0.00000
					CHANNELS 3 Zrotation Yrotation Xrotation
					JOINT RightToeBase
					{
						OFFSET -0.26967 -0.74090 2.08741
						CHANNELS 3 Zrotation Yrotation Xrotation
						End Site
						{
							OFFSET -0.00000 -0.00000 1.10614
						}
					}
				}
			}
		}
	}
	JOINT LowerBack
	{
		OFFSET 0 0 0
		CHANNELS 3 Zrotation Yrotation Xrotation
		JOINT Spine
		{
			OFFSET 0.06481 2.02437 -0.08472
			CHANNELS 3 Zrotation Yrotation Xrotation
			JOINT Spine1
			{
				OFFSET 0.00015 1.96711 0.18069
				CHANNELS 3 Zrotation Yrotation Xrotation
				JOINT Neck
				{
					OFFSET 0 0 0
					CHANNELS 3 Zrotation Yrotation Xrotation
					JOINT Neck1
					{
						OFFSET -0.29961 1.68293 -0.13041
						CHANNELS 3 Zrotation Yrotation Xrotation
						JOINT Head
						{
							OFFSET 0.59697 1.61501 -0.14669
							CHANNELS 3 Zrotation Yrotation Xrotation
							End Site
							{
								OFFSET 0.22973 1.74906 -0.10148
							}
						}
					}
				}
				JOINT LeftShoulder
				{
					OFFSET 0 0 0
					CHANNELS 3 Zrotation Yrotation Xrotation
					JOINT LeftArm
					{
						OFFSET 3.37968 1.02893 0.31147
						CHANNELS 3 Zrotation Yrotation Xrotation
						JOINT LeftForeArm
						{
							OFFSET 5.19807 -0.00000 -0.00000
							CHANNELS 3 Zrotation Yrotation Xrotation
							JOINT LeftHand
							{
								OFFSET 3.09370 -0.00000 -0.00000
								CHANNELS 3 Zrotation Yrotation Xrotation
								JOINT LeftFingerBase
								{
									OFFSET 0 0 0
									CHANNELS 3 Zrotation Yrotation Xrotation
									JOINT LeftHandIndex1
									{
										OFFSET 0.67263 -0.00000 -0.00000
										CHANNELS 3 Zrotation Yrotation Xrotation
										End Site
										{
											OFFSET 0.54229 -0.00000 -0.00000
										}
									}
								}
								JOINT LThumb
								{
									OFFSET 0 0 0
									CHANNELS 3 Zrotation Yrotation Xrotation
									End Site
									{
										OFFSET 0.55057 -0.00000 0.55057
									}
								}
							}
						}
					}
				}
				JOINT RightShoulder
				{
					OFFSET 0 0 0
					CHANNELS 3 Zrotation Yrotation Xrotation
					JOINT RightArm
					{
						OFFSET -3.38254 0.96355 -0.16120
						CHANNELS 3 Zrotation Yrotation Xrotation
						JOINT RightForeArm
						{
							OFFSET -5.45222 -0.00000 -0.00000
							CHANNELS 3 Zrotation Yrotation Xrotation
							JOINT RightHand
							{
								OFFSET -3.01284 -0.00000 -0.00000
								CHANNELS 3 Zrotation Yrotation Xrotation
								JOINT RightFingerBase
								{
									OFFSET 0 0 0
									CHANNELS 3 Zrotation Yrotation Xrotation
									JOINT RightHandIndex1
									{
										OFFSET -0.62230 -0.00000 -0.00000
										CHANNELS 3 Zrotation Yrotation Xrotation
										End Site
										{
											OFFSET -0.50171 -0.00000 -0.00000
										}
									}
								}
								JOINT RThumb
								{
									OFFSET 0 0 0
									CHANNELS 3 Zrotation Yrotation Xrotation
									End Site
									{
										OFFSET -0.50937 -0.00000 0.50937
									}
								}
							}
						}
					}
				}
			}
		}
	}
}
MOTION
Frames: 14
Frame Time: .0083333
-6.1241 15.9967 39.3618 0 0 0 0 0 0 -21 0 0 0 0 0 0 0 0 0 0 0 0 0 0 21 0 0 0 0 0 0 0 0 0 0 0 0 0 0 0 0 0 0 0 0 0 0 -16 0 0 21 0 0 11 0 0 0 -8 0 0 0 0 0 0 0 0 0 0 0 0 0 0 0 0 0 0 0 0 8 0 0 0 0 0 0 0 0 0 0 0 0 0 0 0 0 0
-6.1241 15.9967 39.3618 -177.8300 -16.0188 -165.6950 0.0000 0.0000 0.0000 -15.5834 -1.5747 -28.6754 2.2509 9.3701 26.9601 0.5515 -13.5850 -15.2429 1.3289 -7.3002 -20.6077 0.0000 0.0000 0.0000 23.8767 -4.8579 -23.5470 -1.5500 -7.8582 22.2842 -0.4761 16.5293 -15.9221 -0.5308 4.6687 -12.9660 5.4299 5.1773 -13.2533 -1.6725 5.8765 -3.7554 -3.8096 2.7927 4.1642 -25.6435 -2.1676 3.7770 37.6054 -7.1158 2.9395 18.3767 -4.6855 2.5210 0.0000 0.0000 0.0000 -32.0319 25.8738 97.2194 134.0073 -51.2457 -96.9897 -0.0000 0.0000 -116.0480 25.7141 28.9873 13.1364 -7.1250 0.0000 -0.0000 -6.0974 61.4657 -2.4492 0.0000 0.0000 0.0000 36.1979 -27.7210 94.2909 -130.9745 52.5948 -94.6020 0.0000 -0.0000 -62.5470 27.9105 -30.9626 -15.2442 7.1250 -0.0000 -0.0000 58.2846 -51.8970 -13.7783
-6.1231 15.9962 39.3647 -177.7940 -15.9883 -165.7130 0.0000 0.0000 0.0000 -15.5433 -1.5780 -28.6978 2.2600 9.3879 27.0163 0.5615 -13.5003 -15.2993 1.3504 -7.3566 -20.7762 0.0000 0.0000 0.0000 23.9095 -4.8377 -23.5409 -1.5493 -7.8564 22.2787 -0.4715 16.5512 -15.8948 -0.5331 4.6784 -12.9936 5.3585 5.0912 -13.2717 -1.5681 5.7671 -3.7170 -3.6780 2.7399 4.1850 -25.8168 -2.2118 3.6273 37.7117 -7.2085 3.0377 18.4741 -4.7277 2.6243 -0.0000 -0.0000 0.0000 -32.3973 26.0688 96.7455 133.0096 -51.7071 -96.2091 -0.0000 0.0000 -115.1530 23.8123 30.2489 12.5337 -7.1250 0.0000 -0.0000 -9.0514 62.2706 -3.8171 -0.0000 -0.0000 0.0000 35.9925 -27.6646 93.2416 -128.3813 53.6279 -92.5277 0.0000 -0.0000 -59.8898 31.2806 -27.1233 -15.4819 7.1250 -0.0000 -0.0000 56.9766 -48.7212 -7.5397
-6.1208 15.9950 39.3686 -177.7030 -15.9670 -165.7360 0.0000 0.0000 0.0000 -15.4314 -1.6356 -28.6851 2.2596 9.3871 27.0139 0.5735 -13.3624 -15.3527 1.3774 -7.4267 -20.9859 0.0000 0.0000 0.0000 23.9842 -4.6913 -23.5200 -1.5552 -7.8706 22.3217 -0.4854 16.4259 -15.9471 -0.5446 4.7280 -13.1342 5.5086 5.1451 -13.0145 -1.6054 5.8323 -3.8325 -3.8122 2.7639 3.9489 -25.6651 -2.2450 3.7991 37.6941 -7.2710 2.9194 18.4220 -4.7770 2.5750 -0.0000 0.0000 0.0000 -32.3079 26.1090 96.6766 132.0301 -52.1432 -95.4380 -0.0000 0.0000 -114.0700 21.1382 31.2880 11.3537 -7.1250 0.0000 -0.0000 -12.8526 62.6167 -5.5495 -0.0000 0.0000 0.0000 36.0695 -28.0308 92.1986 -125.7779 54.5626 -90.4188 0.0000 -0.0000 -56.8067 36.3263 -24.3721 -16.8789 7.1250 -0.0000 -0.0000 57.5053 -45.9198 -2.0031
-6.1140 15.9967 39.3737 -177.7740 -16.0289 -165.6570 0.0000 0.0000 0.0000 -15.4668 -1.7795 -28.7295 2.2581 9.3841 27.0044 0.5761 -13.2848 -15.3458 1.3896 -7.4583 -21.0806 0.0000 0.0000 0.0000 23.9253 -4.5962 -23.5999 -1.5622 -7.8876 22.3731 -0.5001 16.2667 -15.9906 -0.5474 4.7400 -13.1686 5.2500 5.0113 -13.1493 -1.4898 5.6776 -3.7542 -3.5627 2.6908 4.0515 -25.9306 -2.3404 3.6729 37.8694 -7.4287 2.8997 18.5749 -4.8600 2.6771 -0.0000 -0.0000 0.0000 -32.8287 26.2609 96.0664 130.5459 -52.7730 -94.2611 -0.0000 0.0000 -112.1590 16.7938 32.0986 9.1109 -7.1250 0.0000 -0.0000 -18.3765 62.2844 -7.8638 -0.0000 -0.0000 0.0000 36.3200 -27.8566 90.8218 -122.6041 55.5751 -87.8165 0.0000 -0.0000 -52.8976 38.9100 -20.6429 -15.8847 7.1250 -0.0000 -0.0000 55.4672 -42.6270 5.1060
-6.1085 15.9969 39.3787 -177.8020 -16.0542 -165.6290 0.0000 0.0000 0.0000 -15.4692 -1.8725 -28.7317 2.2543 9.3769 26.9815 0.5811 -13.1903 -15.3543 1.4084 -7.5063 -21.2242 0.0000 0.0000 0.0000 23.8908 -4.4522 -23.6209 -1.5716 -7.9100 22.4410 -0.5184 16.0852 -16.0551 -0.5548 4.7711 -13.2570 5.1315 4.9457 -13.0968 -1.4404 5.6073 -3.7562 -3.4618 2.6545 3.9975 -26.0354 -2.4102 3.6762 37.9692 -7.5504 2.8403 18.6485 -4.9320 2.7183 -0.0000 -0.0000 0.0000 -33.1516 26.3706 95.5945 129.1087 -53.3487 -93.1124 -0.0000 0.0000 -110.2890 12.7448 33.2139 7.0627 -7.1250 0.0000 -0.0000 -23.7685 62.2868 -10.2993 -0.0000 -0.0000 0.0000 36.5809 -27.8620 89.5062 -119.3584 56.4785 -85.1245 0.0000 -0.0000 -49.3463 41.7376 -17.0773 -14.6809 7.1250 -0.0000 -0.0000 53.4864 -39.0318 12.6699
-6.1021 15.9969 39.3841 -177.8500 -16.0783 -165.6070 0.0000 0.0000 0.0000 -15.4899 -1.9727 -28.7040 2.2462 9.3610 26.9313 0.5852 -13.0850 -15.3514 1.4257 -7.5505 -21.3569 0.0000 0.0000 0.0000 23.8317 -4.2863 -23.6392 -1.5855 -7.9433 22.5420 -0.5412 15.8756 -16.1455 -0.5624 4.8035 -13.3489 4.9945 4.8794 -13.0116 -1.3993 5.5414 -3.7616 -3.3609 2.6202 3.9221 -26.1415 -2.4857 3.7031 38.0697 -7.6803 2.7571 18.7223 -5.0105 2.7522 0.0000 -0.0000 0.0000 -33.5238 26.4724 95.0368 127.4654 -53.9680 -91.7886 -0.0000 0.0000 -107.9730 7.9630 34.4192 4.5208 -7.1250 0.0000 -0.0000 -29.9886 62.1348 -13.1272 0.0000 -0.0000 0.0000 36.9838 -27.8398 88.0806 -115.8509 57.3178 -82.1860 0.0000 -0.0000 -45.7257 44.1062 -13.6339 -12.8698 7.1250 -0.0000 -0.0000 51.2896 -35.1371 20.2935
-6.0950 15.9964 39.3896 -177.9140 -16.0903 -165.6000 0.0000 0.0000 0.0000 -15.5237 -2.0715 -28.6561 2.2391 9.3473 26.8879 0.5909 -12.9673 -15.3589 1.4436 -7.5958 -21.4928 0.0000 0.0000 0.0000 23.7537 -4.1066 -23.6324 -1.5998 -7.9773 22.6450 -0.5651 15.6507 -16.2402 -0.5698 4.8345 -13.4371 4.8402 4.8124 -12.8989 -1.3624 5.4788 -3.7658 -3.2557 2.5878 3.8326 -26.2575 -2.5662 3.7488 38.1729 -7.8192 2.6593 18.7997 -5.0957 2.7832 -0.0000 -0.0000 0.0000 -33.9692 26.5747 94.3666 125.5976 -54.6238 -90.2719 -0.0000 0.0000 -105.1830 2.4785 35.6322 1.4445 -7.1250 0.0000 -0.0000 -36.8397 61.7530 -16.2101 -0.0000 -0.0000 0.0000 37.5216 -27.7823 86.5410 -112.0844 58.0745 -79.0020 0.0000 -0.0000 -42.1760 45.9924 -10.4554 -10.6400 7.1250 -0.0000 -0.0000 49.1841 -31.1107 27.3985
-6.0875 15.9953 39.3949 -177.9800 -16.0884 -165.6160 0.0000 0.0000 0.0000 -15.5589 -2.1639 -28.5784 2.2317 9.3329 26.8424 0.5979 -12.8340 -15.3736 1.4623 -7.6426 -21.6337 0.0000 0.0000 0.0000 23.6693 -3.9165 -23.5984 -1.6151 -8.0137 22.7557 -0.5903 15.4169 -16.3443 -0.5782 4.8694 -13.5364 4.6961 4.7549 -12.7379 -1.3372 5.4308 -3.7784 -3.1694 2.5623 3.7119 -26.3635 -2.6534 3.8304 38.2708 -7.9717 2.5431 18.8707 -5.1910 2.8072 -0.0000 0.0000 0.0000 -34.4699 26.6702 93.5892 123.4868 -55.3069 -88.5434 -0.0000 0.0000 -101.9280 -3.7111 36.6851 -2.2190 -7.1250 0.0000 -0.0000 -44.0122 61.0126 -19.2474 -0.0000 0.0000 0.0000 38.1982 -27.7142 84.8991 -108.1020 58.7249 -75.6097 0.0000 -0.0000 -38.8286 47.4715 -7.6911 -8.3013 7.1250 -0.0000 -0.0000 47.4290 -27.2431 33.5369
-6.0798 15.9936 39.3999 -178.0420 -16.0733 -165.6520 0.0000 0.0000 0.0000 -15.5876 -2.2532 -28.4757 2.2246 9.3189 26.7982 0.6063 -12.6835 -15.3950 1.4815 -7.6904 -21.7777 0.0000 0.0000 0.0000 23.5888 -3.7321 -23.5463 -1.6309 -8.0509 22.8687 -0.6144 15.1955 -16.4481 -0.5866 4.9040 -13.6349 4.5604 4.7035 -12.5526 -1.3165 5.3913 -3.7904 -3.0924 2.5414 3.5807 -26.4566 -2.7512 3.9364 38.3544 -8.1390 2.4097 18.9286 -5.2952 2.8267 0.0000 0.0000 0.0000 -35.0539 26.7583 92.6720 121.1107 -56.0066 -86.5814 -0.0000 0.0000 -98.2793 -10.4942 37.3194 -6.4074 -7.1250 0.0000 -0.0000 -50.9481 59.7959 -21.6968 0.0000 0.0000 0.0000 39.0040 -27.6228 83.1542 -103.9490 59.2519 -72.0498 0.0000 -0.0000 -35.7712 48.6519 -5.4847 -6.1987 7.1250 -0.0000 -0.0000 46.1365 -23.8493 38.4865
-6.0718 15.9919 39.4047 -178.0990 -16.0517 -165.6910 0.0000 0.0000 0.0000 -15.6065 -2.3499 -28.3681 2.2180 9.3061 26.7578 0.6156 -12.5153 -15.4203 1.5009 -7.7384 -21.9223 0.0000 0.0000 0.0000 23.5128 -3.5278 -23.4833 -1.6464 -8.0870 22.9787 -0.6388 14.9582 -16.5506 -0.5960 4.9423 -13.7440 4.4352 4.6597 -12.3600 -1.3022 5.3604 -3.8081 -3.0271 2.5245 3.4420 -26.5279 -2.8563 4.0757 38.4211 -8.3158 2.2534 18.9701 -5.4062 2.8355 0.0000 -0.0000 0.0000 -35.7186 26.8299 91.6179 118.4495 -56.7092 -84.3658 -0.0000 0.0000 -94.3398 -17.5232 37.3498 -10.8440 -7.1250 0.0000 -0.0000 -57.0228 58.1440 -23.0337 0.0000 -0.0000 0.0000 39.9396 -27.5124 81.3223 -99.6820 59.6428 -68.3748 0.0000 -0.0000 -33.0609 49.4399 -3.8925 -4.5348 7.1250 -0.0000 -0.0000 45.2956 -21.2925 41.9557
-6.0633 15.9902 39.4096 -178.1480 -16.0315 -165.7250 0.0000 0.0000 0.0000 -15.6117 -2.4570 -28.2688 2.2122 9.2947 26.7215 0.6251 -12.3377 -15.4451 1.5206 -7.7866 -22.0679 0.0000 0.0000 0.0000 23.4445 -3.2943 -23.4155 -1.6611 -8.1214 23.0833 -0.6639 14.6918 -16.6499 -0.6066 4.9853 -13.8667 4.3216 4.6228 -12.1677 -1.2947 5.3362 -3.8357 -2.9745 2.5104 3.2956 -26.5732 -2.9645 4.2573 38.4720 -8.4970 2.0718 18.9954 -5.5223 2.8289 0.0000 0.0000 0.0000 -36.4598 26.8790 90.4277 115.4952 -57.3955 -81.8864 -0.0000 0.0000 -90.2560 -24.5193 36.5494 -15.1968 -7.1250 0.0000 -0.0000 -61.7337 56.0716 -22.6867 0.0000 0.0000 0.0000 41.0007 -27.3880 79.4166 -95.3557 59.8913 -64.6365 0.0000 -0.0000 -30.7102 49.8542 -2.9482 -3.4896 7.1250 -0.0000 -0.0000 44.8444 -19.7744 43.9093
-6.0545 15.9889 39.4147 -178.1890 -16.0090 -165.7490 0.0000 0.0000 0.0000 -15.6045 -2.5730 -28.1857 2.2072 9.2850 26.6909 0.6347 -12.1503 -15.4697 1.5407 -7.8356 -22.2158 0.0000 0.0000 0.0000 23.3851 -3.0378 -23.3523 -1.6749 -8.1532 23.1805 -0.6880 14.4117 -16.7401 -0.6175 5.0289 -13.9910 4.2169 4.5844 -11.9830 -1.2840 5.3072 -3.8679 -2.9240 2.4936 3.1486 -26.6168 -3.0759 4.4449 38.5070 -8.6781 1.8821 19.0105 -5.6374 2.8182 -0.0000 -0.0000 0.0000 -37.3072 26.9187 89.0753 112.2524 -58.0437 -79.1445 -0.0000 0.0000 -86.1898 -30.9608 35.0678 -19.0184 -7.1250 0.0000 -0.0000 -64.8892 53.8434 -20.6706 -0.0000 -0.0000 0.0000 42.1574 -27.2080 77.4644 -91.0083 59.9962 -60.8732 0.0000 -0.0000 -28.6937 49.9245 -2.6343 -3.1268 7.1250 -0.0000 -0.0000 44.7106 -19.3347 44.4331
-6.0455 15.9876 39.4196 -178.2200 -15.9777 -165.7670 0.0000 0.0000 0.0000 -15.5859 -2.6867 -28.1170 2.2035 9.2776 26.6676 0.6450 -11.9558 -15.5007 1.5622 -7.8874 -22.3726 0.0000 0.0000 0.0000 23.3348 -2.7590 -23.2880 -1.6875 -8.1824 23.2695 -0.7113 14.1208 -16.8230 -0.6295 5.0766 -14.1271 4.1240 4.5480 -11.8109 -1.2706 5.2777 -3.9036 -2.8763 2.4764 3.0058 -26.6684 -3.1865 4.6514 38.5371 -8.8583 1.6821 19.0252 -5.7532 2.8010 -0.0000 0.0000 0.0000 -38.2519 26.9406 87.5834 108.7514 -58.6288 -76.1644 -0.0000 0.0000 -82.2937 -36.4821 33.1801 -22.0330 -7.1250 0.0000 -0.0000 -66.5526 51.6765 -17.2958 -0.0000 0.0000 0.0000 43.4036 -26.9747 75.4697 -86.6734 59.9581 -57.1195 0.0000 -0.0000 -26.9381 49.5740 -2.8949 -3.3929 7.1250 -0.0000 -0.0000 44.8594 -20.0036 43.4760
